<?xml version="1.0" encoding="utf-8"?>
<!-- Generator: Adobe Illustrator 27.0.0, SVG Export Plug-In . SVG Version: 6.00 Build 0)  -->
<svg version="1.1" id="Layer_1" xmlns="http://www.w3.org/2000/svg" xmlns:xlink="http://www.w3.org/1999/xlink" x="0px" y="0px"
	 viewBox="0 0 136 70" style="enable-background:new 0 0 136 70;" xml:space="preserve">
<style type="text/css">
	.st0{enable-background:new    ;}
	.st1{fill:currentColor;}
</style>
<g id="Group_47" transform="translate(1622 656.815)">
	<g class="st0">
		<path class="st1" d="M-1616-595.5h-4.5v-21.4h12.3v3.7h-7.8v5.5h7.3v3.7h-7.3V-595.5z"/>
		<path class="st1" d="M-1598.2-603.7v8.2h-4.5v-21.4h6.2c2.9,0,5.1,0.5,6.5,1.6s2.1,2.7,2.1,4.8c0,1.3-0.3,2.4-1,3.4
			c-0.7,1-1.7,1.8-2.9,2.3c3.2,4.8,5.3,7.9,6.3,9.3h-5l-5.1-8.2H-1598.2z M-1598.2-607.4h1.5c1.4,0,2.5-0.2,3.2-0.7s1-1.2,1-2.3
			c0-1-0.3-1.7-1-2.2s-1.8-0.6-3.2-0.6h-1.4V-607.4z"/>
		<path class="st1" d="M-1581.7-595.5v-21.4h4.5v21.4H-1581.7z"/>
		<path class="st1" d="M-1558.2-595.5h-12.3v-21.4h12.3v3.7h-7.8v4.7h7.3v3.7h-7.3v5.5h7.8V-595.5z"/>
		<path class="st1" d="M-1533.5-595.5h-5.8l-9.3-16.2h-0.1c0.2,2.9,0.3,4.9,0.3,6.1v10.1h-4.1v-21.4h5.7l9.3,16h0.1
			c-0.1-2.8-0.2-4.8-0.2-5.9v-10.1h4.1V-595.5z"/>
		<path class="st1" d="M-1509-606.4c0,3.5-1,6.2-3,8.1c-2,1.9-4.9,2.8-8.7,2.8h-6.1v-21.4h6.7c3.5,0,6.2,0.9,8.1,2.8
			S-1509-609.7-1509-606.4z M-1513.7-606.3c0-4.6-2-6.9-6.1-6.9h-2.4v13.9h1.9C-1515.9-599.3-1513.7-601.6-1513.7-606.3z"/>
		<path class="st1" d="M-1490.7-601.5c0,1.9-0.7,3.5-2.1,4.6s-3.3,1.7-5.8,1.7c-2.3,0-4.3-0.4-6.1-1.3v-4.2c1.4,0.6,2.7,1.1,3.7,1.4
			s1.9,0.4,2.7,0.4c1,0,1.8-0.2,2.3-0.6s0.8-0.9,0.8-1.7c0-0.4-0.1-0.8-0.4-1.1s-0.6-0.6-1-0.9s-1.4-0.8-2.8-1.5
			c-1.3-0.6-2.3-1.2-2.9-1.8s-1.2-1.2-1.6-2s-0.6-1.6-0.6-2.6c0-1.9,0.6-3.4,1.9-4.5s3.1-1.6,5.3-1.6c1.1,0,2.2,0.1,3.2,0.4
			s2.1,0.6,3.2,1.1l-1.5,3.5c-1.1-0.5-2.1-0.8-2.8-1s-1.5-0.3-2.2-0.3c-0.9,0-1.5,0.2-2,0.6s-0.7,0.9-0.7,1.6c0,0.4,0.1,0.8,0.3,1
			s0.5,0.6,0.9,0.9c0.4,0.3,1.4,0.8,2.9,1.5c2,1,3.4,1.9,4.1,2.9S-1490.7-602.9-1490.7-601.5z"/>
	</g>
	<g class="st0">
		<path class="st1" d="M-1611.4-624.5l-5.2-16.8h-0.1c0.2,3.4,0.3,5.7,0.3,6.8v10h-4.1v-21.4h6.2l5.1,16.4h0.1l5.4-16.4h6.2v21.4
			h-4.2v-10.1c0-0.5,0-1,0-1.7s0.1-2.3,0.2-5h-0.1l-5.5,16.8H-1611.4z"/>
		<path class="st1" d="M-1579.9-624.5h-12.3v-21.4h12.3v3.7h-7.8v4.7h7.3v3.7h-7.3v5.5h7.8V-624.5z"/>
	</g>
	<g class="st0">
		<path class="st1" d="M-1544.7-624.5h-5.5l-1.7-1.7c-1.9,1.3-4,1.9-6.3,1.9c-2.4,0-4.3-0.5-5.7-1.6s-2.1-2.6-2.1-4.4
			c0-1.3,0.3-2.5,0.9-3.4c0.6-0.9,1.6-1.8,3-2.6c-0.7-0.8-1.3-1.6-1.6-2.4s-0.5-1.6-0.5-2.5c0-1.5,0.6-2.7,1.7-3.6s2.7-1.4,4.6-1.4
			c1.8,0,3.3,0.4,4.4,1.3c1.1,0.8,1.6,2,1.6,3.4c0,1.2-0.3,2.2-1,3.2s-1.8,1.9-3.3,2.7l4.2,4.1c0.7-1.1,1.3-2.6,1.8-4.4h4.7
			c-0.4,1.3-0.8,2.6-1.5,3.9c-0.6,1.3-1.3,2.4-2.1,3.3L-1544.7-624.5z M-1561.3-630.7c0,0.8,0.3,1.5,0.9,2s1.4,0.7,2.4,0.7
			c1.2,0,2.3-0.3,3.3-0.9l-4.9-4.8c-0.6,0.4-1,0.9-1.3,1.3S-1561.3-631.3-1561.3-630.7z M-1556-641.1c0-0.5-0.2-0.9-0.5-1.2
			c-0.4-0.3-0.8-0.4-1.4-0.4c-0.7,0-1.2,0.2-1.5,0.5s-0.6,0.8-0.6,1.3c0,0.9,0.5,1.8,1.4,2.8c0.8-0.5,1.5-0.9,1.9-1.4
			C-1556.3-640-1556-640.5-1556-641.1z"/>
	</g>
	<g class="st0">
		<path class="st1" d="M-1524.4-624.5l-5.2-16.8h-0.1c0.2,3.4,0.3,5.7,0.3,6.8v10h-4.1v-21.4h6.2l5.1,16.4h0.1l5.4-16.4h6.2v21.4
			h-4.2v-10.1c0-0.5,0-1,0-1.7c0-0.6,0.1-2.3,0.2-5h-0.1l-5.5,16.8H-1524.4z"/>
		<path class="st1" d="M-1498.5-637.1l4.5-8.8h4.9l-7.1,13.1v8.3h-4.5v-8.2l-7.1-13.2h4.9L-1498.5-637.1z"/>
	</g>
</g>
</svg>
